<svg xmlns="http://www.w3.org/2000/svg" xmlns:xlink="http://www.w3.org/1999/xlink" width="200" zoomAndPan="magnify" viewBox="0 0 150 149.999998" height="200" preserveAspectRatio="xMidYMid meet" version="1.0"><defs><filter x="0%" y="0%" width="100%" height="100%" id="3c3521dae2"><feColorMatrix values="0 0 0 0 1 0 0 0 0 1 0 0 0 0 1 0 0 0 1 0" color-interpolation-filters="sRGB"/></filter><g/><clipPath id="945e5a197e"><path d="M 61 39 L 102 39 L 102 83 L 61 83 Z M 61 39 " clip-rule="nonzero"/></clipPath><clipPath id="d4da0f350a"><path d="M 38.582031 42.492188 L 38.582031 83.023438 C 38.582031 86.335938 41.269531 89.023438 44.582031 89.023438 L 97.433594 89.023438 C 100.75 89.023438 103.433594 86.335938 103.433594 83.023438 L 103.433594 42.492188 C 103.433594 39.179688 100.75 36.492188 97.433594 36.492188 L 44.582031 36.492188 C 41.269531 36.492188 38.582031 39.179688 38.582031 42.492188 Z M 38.582031 42.492188 " clip-rule="nonzero"/></clipPath><clipPath id="e4e967db46"><path d="M 49 49 L 82 49 L 82 83 L 49 83 Z M 49 49 " clip-rule="nonzero"/></clipPath><clipPath id="7b4c44f057"><path d="M 38.582031 42.492188 L 38.582031 83.023438 C 38.582031 86.335938 41.269531 89.023438 44.582031 89.023438 L 97.433594 89.023438 C 100.75 89.023438 103.433594 86.335938 103.433594 83.023438 L 103.433594 42.492188 C 103.433594 39.179688 100.75 36.492188 97.433594 36.492188 L 44.582031 36.492188 C 41.269531 36.492188 38.582031 39.179688 38.582031 42.492188 Z M 38.582031 42.492188 " clip-rule="nonzero"/></clipPath><clipPath id="2f663ee9c6"><path d="M 38.582031 63 L 47 63 L 47 66 L 38.582031 66 Z M 38.582031 63 " clip-rule="nonzero"/></clipPath><clipPath id="e8772c6da2"><path d="M 38.582031 42.492188 L 38.582031 83.023438 C 38.582031 86.335938 41.269531 89.023438 44.582031 89.023438 L 97.433594 89.023438 C 100.75 89.023438 103.433594 86.335938 103.433594 83.023438 L 103.433594 42.492188 C 103.433594 39.179688 100.75 36.492188 97.433594 36.492188 L 44.582031 36.492188 C 41.269531 36.492188 38.582031 39.179688 38.582031 42.492188 Z M 38.582031 42.492188 " clip-rule="nonzero"/></clipPath><clipPath id="47edc5a6b6"><path d="M 49 81 L 55 81 L 55 88.992188 L 49 88.992188 Z M 49 81 " clip-rule="nonzero"/></clipPath><clipPath id="6c5c15c844"><path d="M 38.582031 42.492188 L 38.582031 83.023438 C 38.582031 86.335938 41.269531 89.023438 44.582031 89.023438 L 97.433594 89.023438 C 100.75 89.023438 103.433594 86.335938 103.433594 83.023438 L 103.433594 42.492188 C 103.433594 39.179688 100.75 36.492188 97.433594 36.492188 L 44.582031 36.492188 C 41.269531 36.492188 38.582031 39.179688 38.582031 42.492188 Z M 38.582031 42.492188 " clip-rule="nonzero"/></clipPath><clipPath id="00b0d0f2da"><path d="M 53 41 L 59 41 L 59 49 L 53 49 Z M 53 41 " clip-rule="nonzero"/></clipPath><clipPath id="0bad3f439b"><path d="M 38.582031 42.492188 L 38.582031 83.023438 C 38.582031 86.335938 41.269531 89.023438 44.582031 89.023438 L 97.433594 89.023438 C 100.75 89.023438 103.433594 86.335938 103.433594 83.023438 L 103.433594 42.492188 C 103.433594 39.179688 100.75 36.492188 97.433594 36.492188 L 44.582031 36.492188 C 41.269531 36.492188 38.582031 39.179688 38.582031 42.492188 Z M 38.582031 42.492188 " clip-rule="nonzero"/></clipPath><clipPath id="713a76e753"><path d="M 41 73 L 49 73 L 49 79 L 41 79 Z M 41 73 " clip-rule="nonzero"/></clipPath><clipPath id="766dea1ee4"><path d="M 38.582031 42.492188 L 38.582031 83.023438 C 38.582031 86.335938 41.269531 89.023438 44.582031 89.023438 L 97.433594 89.023438 C 100.75 89.023438 103.433594 86.335938 103.433594 83.023438 L 103.433594 42.492188 C 103.433594 39.179688 100.75 36.492188 97.433594 36.492188 L 44.582031 36.492188 C 41.269531 36.492188 38.582031 39.179688 38.582031 42.492188 Z M 38.582031 42.492188 " clip-rule="nonzero"/></clipPath><clipPath id="2fc5788f40"><path d="M 43 50 L 51 50 L 51 56 L 43 56 Z M 43 50 " clip-rule="nonzero"/></clipPath><clipPath id="5e0f783ff0"><path d="M 38.582031 42.492188 L 38.582031 83.023438 C 38.582031 86.335938 41.269531 89.023438 44.582031 89.023438 L 97.433594 89.023438 C 100.75 89.023438 103.433594 86.335938 103.433594 83.023438 L 103.433594 42.492188 C 103.433594 39.179688 100.75 36.492188 97.433594 36.492188 L 44.582031 36.492188 C 41.269531 36.492188 38.582031 39.179688 38.582031 42.492188 Z M 38.582031 42.492188 " clip-rule="nonzero"/></clipPath><mask id="acc504ccf3"><g filter="url(#3c3521dae2)"><rect x="-15" width="180" fill="#000000" y="-15" height="179.999997" fill-opacity="0.93"/></g></mask><clipPath id="979be2b966"><rect x="0" width="105" y="0" height="27"/></clipPath></defs><g clip-path="url(#945e5a197e)"><g clip-path="url(#d4da0f350a)"><path fill="#2dabe3" d="M 61.066406 47.902344 C 62.347656 46.414062 63.453125 44.710938 64.945312 43.476562 C 73.363281 36.496094 85.492188 39.238281 90.320312 49.074219 C 90.675781 49.796875 91.324219 50.550781 92.027344 50.902344 C 99.410156 54.566406 103.0625 61.640625 101.511719 69.460938 C 100.058594 76.765625 93.804688 82.066406 85.875 82.472656 C 82.746094 82.636719 79.570312 82.613281 76.457031 82.261719 C 67.304688 81.222656 61.261719 73.703125 61.921875 64.460938 C 62.074219 62.371094 63.464844 60.910156 65.191406 61.023438 C 66.917969 61.136719 68.113281 62.484375 67.867188 64.675781 C 67.1875 70.714844 71.765625 76.882812 79.6875 76.503906 C 82.195312 76.382812 84.742188 76.558594 87.210938 76.191406 C 92.140625 75.460938 95.699219 71.285156 95.890625 66.394531 C 96.082031 61.609375 92.726562 57.09375 87.90625 55.992188 C 86.308594 55.628906 85.765625 54.894531 85.386719 53.371094 C 83.785156 46.921875 76.503906 43.683594 70.722656 46.886719 C 69.148438 47.753906 67.65625 48.128906 65.910156 48.058594 C 64.425781 47.996094 62.933594 48.1875 61.441406 48.265625 C 61.316406 48.144531 61.191406 48.023438 61.066406 47.902344 Z M 61.066406 47.902344 " fill-opacity="1" fill-rule="nonzero"/></g></g><g clip-path="url(#e4e967db46)"><g clip-path="url(#7b4c44f057)"><path fill="#fbc927" d="M 69.152344 81.882812 C 59.082031 84.671875 48.867188 76.152344 49.308594 65.542969 C 49.671875 56.8125 56.277344 49.984375 64.738281 49.589844 C 73.21875 49.191406 80.546875 55.277344 81.777344 63.851562 C 82 65.394531 81.929688 67.023438 81.707031 68.570312 C 81.421875 70.558594 80.074219 71.460938 78.238281 71.214844 C 76.636719 71.003906 75.71875 69.917969 75.863281 67.941406 C 76.148438 64.121094 75.304688 60.734375 72.3125 58.199219 C 68.972656 55.367188 65.171875 54.773438 61.210938 56.652344 C 57.417969 58.453125 55.339844 61.617188 55.304688 65.855469 C 55.265625 70.226562 57.351562 73.386719 61.226562 75.460938 C 62.613281 76.199219 63.796875 77.332031 65.027344 78.339844 C 66.382812 79.449219 67.6875 80.621094 69.152344 81.882812 Z M 69.152344 81.882812 " fill-opacity="1" fill-rule="nonzero"/></g></g><g clip-path="url(#2f663ee9c6)"><g clip-path="url(#e8772c6da2)"><path fill="#fbc927" d="M 42.367188 65.09375 C 41.492188 65.09375 40.601562 65.199219 39.753906 65.046875 C 39.328125 64.972656 38.984375 64.425781 38.605469 64.09375 C 38.921875 63.75 39.222656 63.125 39.554688 63.109375 C 41.476562 63.015625 43.40625 63.003906 45.328125 63.113281 C 45.660156 63.136719 45.957031 63.863281 46.269531 64.265625 C 45.902344 64.542969 45.5625 65.003906 45.167969 65.054688 C 44.246094 65.171875 43.300781 65.09375 42.367188 65.09375 Z M 42.367188 65.09375 " fill-opacity="1" fill-rule="nonzero"/></g></g><g clip-path="url(#47edc5a6b6)"><g clip-path="url(#6c5c15c844)"><path fill="#fbc927" d="M 50.597656 89 C 50.355469 88.382812 49.828125 87.699219 49.996094 87.371094 C 50.894531 85.570312 51.9375 83.839844 53.015625 82.136719 C 53.171875 81.894531 53.875 81.773438 54.160156 81.917969 C 54.441406 82.058594 54.75 82.738281 54.632812 82.96875 C 53.6875 84.816406 52.65625 86.617188 51.621094 88.410156 C 51.511719 88.597656 51.203125 88.660156 50.597656 89 Z M 50.597656 89 " fill-opacity="1" fill-rule="nonzero"/></g></g><g clip-path="url(#00b0d0f2da)"><g clip-path="url(#0bad3f439b)"><path fill="#fbc927" d="M 58.234375 47.128906 C 57.953125 47.601562 57.832031 48.082031 57.578125 48.167969 C 57.234375 48.28125 56.566406 48.242188 56.425781 48.023438 C 55.324219 46.285156 54.285156 44.507812 53.3125 42.695312 C 53.175781 42.433594 53.394531 41.773438 53.65625 41.566406 C 53.894531 41.378906 54.648438 41.40625 54.78125 41.601562 C 55.980469 43.410156 57.09375 45.277344 58.234375 47.128906 Z M 58.234375 47.128906 " fill-opacity="1" fill-rule="nonzero"/></g></g><g clip-path="url(#713a76e753)"><g clip-path="url(#766dea1ee4)"><path fill="#fbc927" d="M 48.007812 74.097656 C 47.992188 75.5625 42.429688 78.851562 41.699219 78.195312 C 41.414062 77.941406 41.425781 76.753906 41.695312 76.570312 C 43.242188 75.503906 44.875 74.546875 46.554688 73.707031 C 46.921875 73.523438 47.601562 73.976562 48.007812 74.097656 Z M 48.007812 74.097656 " fill-opacity="1" fill-rule="nonzero"/></g></g><g clip-path="url(#2fc5788f40)"><g clip-path="url(#5e0f783ff0)"><path fill="#fbc927" d="M 50.199219 54.566406 C 49.511719 54.742188 48.824219 55.164062 48.441406 54.96875 C 46.765625 54.132812 45.152344 53.15625 43.582031 52.128906 C 43.304688 51.945312 43.179688 51.230469 43.289062 50.847656 C 43.355469 50.609375 44.117188 50.296875 44.351562 50.421875 C 46.164062 51.394531 47.929688 52.453125 49.691406 53.519531 C 49.863281 53.625 49.90625 53.949219 50.199219 54.566406 Z M 50.199219 54.566406 " fill-opacity="1" fill-rule="nonzero"/></g></g><g mask="url(#acc504ccf3)"><g transform="matrix(1, 0, 0, 1, 25, 81)"><g clip-path="url(#979be2b966)"><g fill="#2dabe3" fill-opacity="0.4"><g transform="translate(1.480522, 20.667902)"><g><path d="M 16.015625 0 L 11.703125 0 L 10.421875 -5.875 C 10.359375 -6.113281 10.257812 -6.597656 10.125 -7.328125 C 9.988281 -8.066406 9.890625 -8.679688 9.828125 -9.171875 C 9.785156 -8.773438 9.707031 -8.28125 9.59375 -7.6875 C 9.476562 -7.09375 9.367188 -6.546875 9.265625 -6.046875 C 9.160156 -5.546875 8.710938 -3.53125 7.921875 0 L 3.625 0 L 0.28125 -13.46875 L 3.796875 -13.46875 L 5.265625 -6.71875 C 5.597656 -5.226562 5.820312 -4.039062 5.9375 -3.15625 C 6.019531 -3.78125 6.164062 -4.628906 6.375 -5.703125 C 6.582031 -6.773438 6.773438 -7.664062 6.953125 -8.375 L 8.140625 -13.46875 L 11.515625 -13.46875 L 12.65625 -8.375 C 12.851562 -7.5625 13.050781 -6.617188 13.25 -5.546875 C 13.457031 -4.472656 13.597656 -3.675781 13.671875 -3.15625 C 13.742188 -3.832031 13.960938 -5.015625 14.328125 -6.703125 L 15.8125 -13.46875 L 19.328125 -13.46875 Z M 16.015625 0 "/></g></g></g><g fill="#2dabe3" fill-opacity="0.4"><g transform="translate(21.095159, 20.667902)"><g><path d="M 6.28125 0.1875 C 4.539062 0.1875 3.191406 -0.273438 2.234375 -1.203125 C 1.273438 -2.128906 0.796875 -3.445312 0.796875 -5.15625 C 0.796875 -6.914062 1.238281 -8.265625 2.125 -9.203125 C 3.019531 -10.148438 4.289062 -10.625 5.9375 -10.625 C 7.507812 -10.625 8.722656 -10.210938 9.578125 -9.390625 C 10.441406 -8.578125 10.875 -7.398438 10.875 -5.859375 L 10.875 -4.25 L 4.4375 -4.25 C 4.457031 -3.664062 4.664062 -3.207031 5.0625 -2.875 C 5.46875 -2.539062 6.019531 -2.375 6.71875 -2.375 C 7.351562 -2.375 7.9375 -2.429688 8.46875 -2.546875 C 9 -2.671875 9.570312 -2.878906 10.1875 -3.171875 L 10.1875 -0.578125 C 9.625 -0.285156 9.039062 -0.0859375 8.4375 0.015625 C 7.832031 0.128906 7.113281 0.1875 6.28125 0.1875 Z M 6.078125 -8.171875 C 5.648438 -8.171875 5.289062 -8.035156 5 -7.765625 C 4.71875 -7.503906 4.550781 -7.085938 4.5 -6.515625 L 7.609375 -6.515625 C 7.585938 -7.015625 7.441406 -7.414062 7.171875 -7.71875 C 6.898438 -8.019531 6.535156 -8.171875 6.078125 -8.171875 Z M 6.078125 -8.171875 "/></g></g></g><g fill="#2dabe3" fill-opacity="0.4"><g transform="translate(32.764392, 20.667902)"><g><path d="M 8.0625 0 L 7.359375 -1.375 L 7.296875 -1.375 C 6.804688 -0.78125 6.304688 -0.367188 5.796875 -0.140625 C 5.296875 0.078125 4.648438 0.1875 3.859375 0.1875 C 2.867188 0.1875 2.09375 -0.101562 1.53125 -0.6875 C 0.96875 -1.28125 0.6875 -2.113281 0.6875 -3.1875 C 0.6875 -4.300781 1.070312 -5.128906 1.84375 -5.671875 C 2.613281 -6.210938 3.734375 -6.519531 5.203125 -6.59375 L 6.953125 -6.640625 L 6.953125 -6.796875 C 6.953125 -7.648438 6.523438 -8.078125 5.671875 -8.078125 C 4.910156 -8.078125 3.945312 -7.820312 2.78125 -7.3125 L 1.734375 -9.6875 C 2.953125 -10.3125 4.488281 -10.625 6.34375 -10.625 C 7.675781 -10.625 8.707031 -10.289062 9.4375 -9.625 C 10.175781 -8.96875 10.546875 -8.039062 10.546875 -6.84375 L 10.546875 0 Z M 5.375 -2.359375 C 5.8125 -2.359375 6.1875 -2.492188 6.5 -2.765625 C 6.8125 -3.046875 6.96875 -3.410156 6.96875 -3.859375 L 6.96875 -4.65625 L 6.140625 -4.625 C 4.953125 -4.582031 4.359375 -4.144531 4.359375 -3.3125 C 4.359375 -2.675781 4.695312 -2.359375 5.375 -2.359375 Z M 5.375 -2.359375 "/></g></g></g><g fill="#2dabe3" fill-opacity="0.4"><g transform="translate(44.5258, 20.667902)"><g><path d="M 6.359375 -2.65625 C 6.847656 -2.65625 7.425781 -2.773438 8.09375 -3.015625 L 8.09375 -0.390625 C 7.613281 -0.179688 7.15625 -0.0351562 6.71875 0.046875 C 6.28125 0.140625 5.765625 0.1875 5.171875 0.1875 C 3.960938 0.1875 3.085938 -0.109375 2.546875 -0.703125 C 2.015625 -1.296875 1.75 -2.207031 1.75 -3.4375 L 1.75 -7.734375 L 0.484375 -7.734375 L 0.484375 -9.203125 L 2.09375 -10.34375 L 3.015625 -12.53125 L 5.375 -12.53125 L 5.375 -10.4375 L 7.9375 -10.4375 L 7.9375 -7.734375 L 5.375 -7.734375 L 5.375 -3.671875 C 5.375 -2.992188 5.703125 -2.65625 6.359375 -2.65625 Z M 6.359375 -2.65625 "/></g></g></g><g fill="#2dabe3" fill-opacity="0.4"><g transform="translate(53.208595, 20.667902)"><g><path d="M 7.8125 0 L 7.8125 -5.703125 C 7.8125 -7.097656 7.398438 -7.796875 6.578125 -7.796875 C 5.984375 -7.796875 5.546875 -7.546875 5.265625 -7.046875 C 4.984375 -6.554688 4.84375 -5.738281 4.84375 -4.59375 L 4.84375 0 L 1.25 0 L 1.25 -14.34375 L 4.84375 -14.34375 L 4.84375 -12.296875 C 4.84375 -11.378906 4.796875 -10.332031 4.703125 -9.15625 L 4.859375 -9.15625 C 5.203125 -9.695312 5.609375 -10.078125 6.078125 -10.296875 C 6.554688 -10.515625 7.109375 -10.625 7.734375 -10.625 C 8.910156 -10.625 9.820312 -10.285156 10.46875 -9.609375 C 11.113281 -8.941406 11.4375 -8.003906 11.4375 -6.796875 L 11.4375 0 Z M 7.8125 0 "/></g></g></g><g fill="#2dabe3" fill-opacity="0.4"><g transform="translate(65.854873, 20.667902)"><g><path d="M 6.28125 0.1875 C 4.539062 0.1875 3.191406 -0.273438 2.234375 -1.203125 C 1.273438 -2.128906 0.796875 -3.445312 0.796875 -5.15625 C 0.796875 -6.914062 1.238281 -8.265625 2.125 -9.203125 C 3.019531 -10.148438 4.289062 -10.625 5.9375 -10.625 C 7.507812 -10.625 8.722656 -10.210938 9.578125 -9.390625 C 10.441406 -8.578125 10.875 -7.398438 10.875 -5.859375 L 10.875 -4.25 L 4.4375 -4.25 C 4.457031 -3.664062 4.664062 -3.207031 5.0625 -2.875 C 5.46875 -2.539062 6.019531 -2.375 6.71875 -2.375 C 7.351562 -2.375 7.9375 -2.429688 8.46875 -2.546875 C 9 -2.671875 9.570312 -2.878906 10.1875 -3.171875 L 10.1875 -0.578125 C 9.625 -0.285156 9.039062 -0.0859375 8.4375 0.015625 C 7.832031 0.128906 7.113281 0.1875 6.28125 0.1875 Z M 6.078125 -8.171875 C 5.648438 -8.171875 5.289062 -8.035156 5 -7.765625 C 4.71875 -7.503906 4.550781 -7.085938 4.5 -6.515625 L 7.609375 -6.515625 C 7.585938 -7.015625 7.441406 -7.414062 7.171875 -7.71875 C 6.898438 -8.019531 6.535156 -8.171875 6.078125 -8.171875 Z M 6.078125 -8.171875 "/></g></g></g><g fill="#2dabe3" fill-opacity="0.4"><g transform="translate(77.524107, 20.667902)"><g><path d="M 7.546875 -10.625 C 7.859375 -10.625 8.15625 -10.597656 8.4375 -10.546875 L 8.640625 -10.515625 L 8.328125 -7.109375 C 8.023438 -7.179688 7.613281 -7.21875 7.09375 -7.21875 C 6.3125 -7.21875 5.738281 -7.035156 5.375 -6.671875 C 5.019531 -6.316406 4.84375 -5.804688 4.84375 -5.140625 L 4.84375 0 L 1.25 0 L 1.25 -10.4375 L 3.921875 -10.4375 L 4.484375 -8.78125 L 4.65625 -8.78125 C 4.957031 -9.332031 5.378906 -9.773438 5.921875 -10.109375 C 6.460938 -10.453125 7.003906 -10.625 7.546875 -10.625 Z M 7.546875 -10.625 "/></g></g></g><g fill="#2dabe3" fill-opacity="0.4"><g transform="translate(86.382033, 20.667902)"><g><path d="M 4.84375 0 L 1.25 0 L 1.25 -14.34375 L 4.84375 -14.34375 Z M 4.84375 0 "/></g></g></g><g fill="#2dabe3" fill-opacity="0.4"><g transform="translate(92.483954, 20.667902)"><g><path d="M -0.015625 -10.4375 L 3.78125 -10.4375 L 5.546875 -4.453125 C 5.628906 -4.140625 5.6875 -3.757812 5.71875 -3.3125 L 5.796875 -3.3125 C 5.847656 -3.738281 5.921875 -4.113281 6.015625 -4.4375 L 7.828125 -10.4375 L 11.515625 -10.4375 L 7.375 0.65625 C 6.851562 2.070312 6.207031 3.070312 5.4375 3.65625 C 4.664062 4.238281 3.660156 4.53125 2.421875 4.53125 C 1.941406 4.53125 1.445312 4.476562 0.9375 4.375 L 0.9375 1.546875 C 1.257812 1.617188 1.632812 1.65625 2.0625 1.65625 C 2.375 1.65625 2.648438 1.59375 2.890625 1.46875 C 3.128906 1.351562 3.335938 1.179688 3.515625 0.953125 C 3.691406 0.734375 3.882812 0.367188 4.09375 -0.140625 Z M -0.015625 -10.4375 "/></g></g></g><g fill="#2dabe3" fill-opacity="1"><g transform="translate(1.480522, 20.667902)"><g><path d="M 16.015625 0 L 11.703125 0 L 10.421875 -5.875 C 10.359375 -6.113281 10.257812 -6.597656 10.125 -7.328125 C 9.988281 -8.066406 9.890625 -8.679688 9.828125 -9.171875 C 9.785156 -8.773438 9.707031 -8.28125 9.59375 -7.6875 C 9.476562 -7.09375 9.367188 -6.546875 9.265625 -6.046875 C 9.160156 -5.546875 8.710938 -3.53125 7.921875 0 L 3.625 0 L 0.28125 -13.46875 L 3.796875 -13.46875 L 5.265625 -6.71875 C 5.597656 -5.226562 5.820312 -4.039062 5.9375 -3.15625 C 6.019531 -3.78125 6.164062 -4.628906 6.375 -5.703125 C 6.582031 -6.773438 6.773438 -7.664062 6.953125 -8.375 L 8.140625 -13.46875 L 11.515625 -13.46875 L 12.65625 -8.375 C 12.851562 -7.5625 13.050781 -6.617188 13.25 -5.546875 C 13.457031 -4.472656 13.597656 -3.675781 13.671875 -3.15625 C 13.742188 -3.832031 13.960938 -5.015625 14.328125 -6.703125 L 15.8125 -13.46875 L 19.328125 -13.46875 Z M 16.015625 0 "/></g></g></g><g fill="#2dabe3" fill-opacity="1"><g transform="translate(21.095159, 20.667902)"><g><path d="M 6.28125 0.1875 C 4.539062 0.1875 3.191406 -0.273438 2.234375 -1.203125 C 1.273438 -2.128906 0.796875 -3.445312 0.796875 -5.15625 C 0.796875 -6.914062 1.238281 -8.265625 2.125 -9.203125 C 3.019531 -10.148438 4.289062 -10.625 5.9375 -10.625 C 7.507812 -10.625 8.722656 -10.210938 9.578125 -9.390625 C 10.441406 -8.578125 10.875 -7.398438 10.875 -5.859375 L 10.875 -4.25 L 4.4375 -4.25 C 4.457031 -3.664062 4.664062 -3.207031 5.0625 -2.875 C 5.46875 -2.539062 6.019531 -2.375 6.71875 -2.375 C 7.351562 -2.375 7.9375 -2.429688 8.46875 -2.546875 C 9 -2.671875 9.570312 -2.878906 10.1875 -3.171875 L 10.1875 -0.578125 C 9.625 -0.285156 9.039062 -0.0859375 8.4375 0.015625 C 7.832031 0.128906 7.113281 0.1875 6.28125 0.1875 Z M 6.078125 -8.171875 C 5.648438 -8.171875 5.289062 -8.035156 5 -7.765625 C 4.71875 -7.503906 4.550781 -7.085938 4.5 -6.515625 L 7.609375 -6.515625 C 7.585938 -7.015625 7.441406 -7.414062 7.171875 -7.71875 C 6.898438 -8.019531 6.535156 -8.171875 6.078125 -8.171875 Z M 6.078125 -8.171875 "/></g></g></g><g fill="#2dabe3" fill-opacity="1"><g transform="translate(32.764392, 20.667902)"><g><path d="M 8.0625 0 L 7.359375 -1.375 L 7.296875 -1.375 C 6.804688 -0.78125 6.304688 -0.367188 5.796875 -0.140625 C 5.296875 0.078125 4.648438 0.1875 3.859375 0.1875 C 2.867188 0.1875 2.09375 -0.101562 1.53125 -0.6875 C 0.96875 -1.28125 0.6875 -2.113281 0.6875 -3.1875 C 0.6875 -4.300781 1.070312 -5.128906 1.84375 -5.671875 C 2.613281 -6.210938 3.734375 -6.519531 5.203125 -6.59375 L 6.953125 -6.640625 L 6.953125 -6.796875 C 6.953125 -7.648438 6.523438 -8.078125 5.671875 -8.078125 C 4.910156 -8.078125 3.945312 -7.820312 2.78125 -7.3125 L 1.734375 -9.6875 C 2.953125 -10.3125 4.488281 -10.625 6.34375 -10.625 C 7.675781 -10.625 8.707031 -10.289062 9.4375 -9.625 C 10.175781 -8.96875 10.546875 -8.039062 10.546875 -6.84375 L 10.546875 0 Z M 5.375 -2.359375 C 5.8125 -2.359375 6.1875 -2.492188 6.5 -2.765625 C 6.8125 -3.046875 6.96875 -3.410156 6.96875 -3.859375 L 6.96875 -4.65625 L 6.140625 -4.625 C 4.953125 -4.582031 4.359375 -4.144531 4.359375 -3.3125 C 4.359375 -2.675781 4.695312 -2.359375 5.375 -2.359375 Z M 5.375 -2.359375 "/></g></g></g><g fill="#2dabe3" fill-opacity="1"><g transform="translate(44.5258, 20.667902)"><g><path d="M 6.359375 -2.65625 C 6.847656 -2.65625 7.425781 -2.773438 8.09375 -3.015625 L 8.09375 -0.390625 C 7.613281 -0.179688 7.15625 -0.0351562 6.71875 0.046875 C 6.28125 0.140625 5.765625 0.1875 5.171875 0.1875 C 3.960938 0.1875 3.085938 -0.109375 2.546875 -0.703125 C 2.015625 -1.296875 1.75 -2.207031 1.75 -3.4375 L 1.75 -7.734375 L 0.484375 -7.734375 L 0.484375 -9.203125 L 2.09375 -10.34375 L 3.015625 -12.53125 L 5.375 -12.53125 L 5.375 -10.4375 L 7.9375 -10.4375 L 7.9375 -7.734375 L 5.375 -7.734375 L 5.375 -3.671875 C 5.375 -2.992188 5.703125 -2.65625 6.359375 -2.65625 Z M 6.359375 -2.65625 "/></g></g></g><g fill="#2dabe3" fill-opacity="1"><g transform="translate(53.208595, 20.667902)"><g><path d="M 7.8125 0 L 7.8125 -5.703125 C 7.8125 -7.097656 7.398438 -7.796875 6.578125 -7.796875 C 5.984375 -7.796875 5.546875 -7.546875 5.265625 -7.046875 C 4.984375 -6.554688 4.84375 -5.738281 4.84375 -4.59375 L 4.84375 0 L 1.25 0 L 1.25 -14.34375 L 4.84375 -14.34375 L 4.84375 -12.296875 C 4.84375 -11.378906 4.796875 -10.332031 4.703125 -9.15625 L 4.859375 -9.15625 C 5.203125 -9.695312 5.609375 -10.078125 6.078125 -10.296875 C 6.554688 -10.515625 7.109375 -10.625 7.734375 -10.625 C 8.910156 -10.625 9.820312 -10.285156 10.46875 -9.609375 C 11.113281 -8.941406 11.4375 -8.003906 11.4375 -6.796875 L 11.4375 0 Z M 7.8125 0 "/></g></g></g><g fill="#2dabe3" fill-opacity="1"><g transform="translate(65.854873, 20.667902)"><g><path d="M 6.28125 0.1875 C 4.539062 0.1875 3.191406 -0.273438 2.234375 -1.203125 C 1.273438 -2.128906 0.796875 -3.445312 0.796875 -5.15625 C 0.796875 -6.914062 1.238281 -8.265625 2.125 -9.203125 C 3.019531 -10.148438 4.289062 -10.625 5.9375 -10.625 C 7.507812 -10.625 8.722656 -10.210938 9.578125 -9.390625 C 10.441406 -8.578125 10.875 -7.398438 10.875 -5.859375 L 10.875 -4.25 L 4.4375 -4.25 C 4.457031 -3.664062 4.664062 -3.207031 5.0625 -2.875 C 5.46875 -2.539062 6.019531 -2.375 6.71875 -2.375 C 7.351562 -2.375 7.9375 -2.429688 8.46875 -2.546875 C 9 -2.671875 9.570312 -2.878906 10.1875 -3.171875 L 10.1875 -0.578125 C 9.625 -0.285156 9.039062 -0.0859375 8.4375 0.015625 C 7.832031 0.128906 7.113281 0.1875 6.28125 0.1875 Z M 6.078125 -8.171875 C 5.648438 -8.171875 5.289062 -8.035156 5 -7.765625 C 4.71875 -7.503906 4.550781 -7.085938 4.5 -6.515625 L 7.609375 -6.515625 C 7.585938 -7.015625 7.441406 -7.414062 7.171875 -7.71875 C 6.898438 -8.019531 6.535156 -8.171875 6.078125 -8.171875 Z M 6.078125 -8.171875 "/></g></g></g><g fill="#2dabe3" fill-opacity="1"><g transform="translate(77.524107, 20.667902)"><g><path d="M 7.546875 -10.625 C 7.859375 -10.625 8.15625 -10.597656 8.4375 -10.546875 L 8.640625 -10.515625 L 8.328125 -7.109375 C 8.023438 -7.179688 7.613281 -7.21875 7.09375 -7.21875 C 6.3125 -7.21875 5.738281 -7.035156 5.375 -6.671875 C 5.019531 -6.316406 4.84375 -5.804688 4.84375 -5.140625 L 4.84375 0 L 1.25 0 L 1.25 -10.4375 L 3.921875 -10.4375 L 4.484375 -8.78125 L 4.65625 -8.78125 C 4.957031 -9.332031 5.378906 -9.773438 5.921875 -10.109375 C 6.460938 -10.453125 7.003906 -10.625 7.546875 -10.625 Z M 7.546875 -10.625 "/></g></g></g><g fill="#2dabe3" fill-opacity="1"><g transform="translate(86.382033, 20.667902)"><g><path d="M 4.84375 0 L 1.25 0 L 1.25 -14.34375 L 4.84375 -14.34375 Z M 4.84375 0 "/></g></g></g><g fill="#2dabe3" fill-opacity="1"><g transform="translate(92.483954, 20.667902)"><g><path d="M -0.015625 -10.4375 L 3.78125 -10.4375 L 5.546875 -4.453125 C 5.628906 -4.140625 5.6875 -3.757812 5.71875 -3.3125 L 5.796875 -3.3125 C 5.847656 -3.738281 5.921875 -4.113281 6.015625 -4.4375 L 7.828125 -10.4375 L 11.515625 -10.4375 L 7.375 0.65625 C 6.851562 2.070312 6.207031 3.070312 5.4375 3.65625 C 4.664062 4.238281 3.660156 4.53125 2.421875 4.53125 C 1.941406 4.53125 1.445312 4.476562 0.9375 4.375 L 0.9375 1.546875 C 1.257812 1.617188 1.632812 1.65625 2.0625 1.65625 C 2.375 1.65625 2.648438 1.59375 2.890625 1.46875 C 3.128906 1.351562 3.335938 1.179688 3.515625 0.953125 C 3.691406 0.734375 3.882812 0.367188 4.09375 -0.140625 Z M -0.015625 -10.4375 "/></g></g></g></g></g></g><g fill="#2dabe3" fill-opacity="0.4"><g transform="translate(60.031876, 112.219158)"><g><path d="M 3.4375 0 L 2.78125 -2.0625 C 2.75 -2.1875 2.675781 -2.472656 2.5625 -2.921875 L 2.53125 -2.921875 C 2.445312 -2.546875 2.375 -2.253906 2.3125 -2.046875 L 1.640625 0 L 1.03125 0 L 0.078125 -3.515625 L 0.625 -3.515625 C 0.851562 -2.628906 1.023438 -1.953125 1.140625 -1.484375 C 1.265625 -1.023438 1.335938 -0.71875 1.359375 -0.5625 L 1.375 -0.5625 C 1.394531 -0.6875 1.429688 -0.84375 1.484375 -1.03125 C 1.535156 -1.226562 1.582031 -1.382812 1.625 -1.5 L 2.265625 -3.515625 L 2.84375 -3.515625 L 3.484375 -1.5 C 3.597656 -1.125 3.675781 -0.816406 3.71875 -0.578125 L 3.75 -0.578125 C 3.757812 -0.648438 3.78125 -0.765625 3.8125 -0.921875 C 3.851562 -1.085938 4.078125 -1.953125 4.484375 -3.515625 L 5.03125 -3.515625 L 4.0625 0 Z M 3.4375 0 "/></g></g></g><g fill="#2dabe3" fill-opacity="0.4"><g transform="translate(65.933993, 112.219158)"><g><path d="M 2.046875 0.0625 C 1.523438 0.0625 1.113281 -0.09375 0.8125 -0.40625 C 0.519531 -0.726562 0.375 -1.171875 0.375 -1.734375 C 0.375 -2.296875 0.507812 -2.742188 0.78125 -3.078125 C 1.0625 -3.410156 1.4375 -3.578125 1.90625 -3.578125 C 2.34375 -3.578125 2.691406 -3.429688 2.953125 -3.140625 C 3.210938 -2.847656 3.34375 -2.46875 3.34375 -2 L 3.34375 -1.65625 L 0.921875 -1.65625 C 0.929688 -1.25 1.035156 -0.9375 1.234375 -0.71875 C 1.429688 -0.507812 1.707031 -0.40625 2.0625 -0.40625 C 2.445312 -0.40625 2.820312 -0.484375 3.1875 -0.640625 L 3.1875 -0.15625 C 3 -0.0820312 2.820312 -0.03125 2.65625 0 C 2.488281 0.0390625 2.285156 0.0625 2.046875 0.0625 Z M 1.90625 -3.125 C 1.625 -3.125 1.398438 -3.03125 1.234375 -2.84375 C 1.066406 -2.664062 0.96875 -2.414062 0.9375 -2.09375 L 2.765625 -2.09375 C 2.765625 -2.425781 2.6875 -2.679688 2.53125 -2.859375 C 2.382812 -3.035156 2.175781 -3.125 1.90625 -3.125 Z M 1.90625 -3.125 "/></g></g></g><g fill="#2dabe3" fill-opacity="0.4"><g transform="translate(70.412572, 112.219158)"><g><path d="M 2.71875 0 L 2.625 -0.5 L 2.59375 -0.5 C 2.414062 -0.28125 2.238281 -0.128906 2.0625 -0.046875 C 1.894531 0.0234375 1.679688 0.0625 1.421875 0.0625 C 1.066406 0.0625 0.789062 -0.0234375 0.59375 -0.203125 C 0.394531 -0.378906 0.296875 -0.632812 0.296875 -0.96875 C 0.296875 -1.675781 0.863281 -2.050781 2 -2.09375 L 2.59375 -2.109375 L 2.59375 -2.328125 C 2.59375 -2.597656 2.535156 -2.796875 2.421875 -2.921875 C 2.304688 -3.054688 2.117188 -3.125 1.859375 -3.125 C 1.554688 -3.125 1.222656 -3.035156 0.859375 -2.859375 L 0.703125 -3.265625 C 0.867188 -3.359375 1.054688 -3.429688 1.265625 -3.484375 C 1.472656 -3.535156 1.679688 -3.5625 1.890625 -3.5625 C 2.304688 -3.5625 2.613281 -3.46875 2.8125 -3.28125 C 3.019531 -3.101562 3.125 -2.804688 3.125 -2.390625 L 3.125 0 Z M 1.515625 -0.375 C 1.847656 -0.375 2.109375 -0.460938 2.296875 -0.640625 C 2.484375 -0.828125 2.578125 -1.082031 2.578125 -1.40625 L 2.578125 -1.734375 L 2.046875 -1.703125 C 1.628906 -1.691406 1.328125 -1.625 1.140625 -1.5 C 0.953125 -1.382812 0.859375 -1.207031 0.859375 -0.96875 C 0.859375 -0.769531 0.914062 -0.617188 1.03125 -0.515625 C 1.144531 -0.421875 1.304688 -0.375 1.515625 -0.375 Z M 1.515625 -0.375 "/></g></g></g><g fill="#2dabe3" fill-opacity="0.4"><g transform="translate(74.85909, 112.219158)"><g><path d="M 1.703125 -0.375 C 1.796875 -0.375 1.882812 -0.378906 1.96875 -0.390625 C 2.0625 -0.410156 2.128906 -0.425781 2.171875 -0.4375 L 2.171875 -0.03125 C 2.117188 0 2.035156 0.0195312 1.921875 0.03125 C 1.804688 0.0507812 1.707031 0.0625 1.625 0.0625 C 0.945312 0.0625 0.609375 -0.296875 0.609375 -1.015625 L 0.609375 -3.09375 L 0.09375 -3.09375 L 0.09375 -3.359375 L 0.609375 -3.578125 L 0.828125 -4.328125 L 1.140625 -4.328125 L 1.140625 -3.515625 L 2.15625 -3.515625 L 2.15625 -3.09375 L 1.140625 -3.09375 L 1.140625 -1.03125 C 1.140625 -0.820312 1.1875 -0.660156 1.28125 -0.546875 C 1.382812 -0.429688 1.523438 -0.375 1.703125 -0.375 Z M 1.703125 -0.375 "/></g></g></g><g fill="#2dabe3" fill-opacity="0.4"><g transform="translate(77.971844, 112.219158)"><g><path d="M 2.96875 0 L 2.96875 -2.265625 C 2.96875 -2.554688 2.898438 -2.769531 2.765625 -2.90625 C 2.640625 -3.050781 2.4375 -3.125 2.15625 -3.125 C 1.789062 -3.125 1.519531 -3.019531 1.34375 -2.8125 C 1.175781 -2.613281 1.09375 -2.289062 1.09375 -1.84375 L 1.09375 0 L 0.5625 0 L 0.5625 -4.984375 L 1.09375 -4.984375 L 1.09375 -3.484375 C 1.09375 -3.296875 1.082031 -3.144531 1.0625 -3.03125 L 1.109375 -3.03125 C 1.210938 -3.195312 1.359375 -3.328125 1.546875 -3.421875 C 1.742188 -3.515625 1.96875 -3.5625 2.21875 -3.5625 C 2.644531 -3.5625 2.960938 -3.457031 3.171875 -3.25 C 3.390625 -3.050781 3.5 -2.734375 3.5 -2.296875 L 3.5 0 Z M 2.96875 0 "/></g></g></g><g fill="#2dabe3" fill-opacity="0.4"><g transform="translate(82.79669, 112.219158)"><g><path d="M 2.046875 0.0625 C 1.523438 0.0625 1.113281 -0.09375 0.8125 -0.40625 C 0.519531 -0.726562 0.375 -1.171875 0.375 -1.734375 C 0.375 -2.296875 0.507812 -2.742188 0.78125 -3.078125 C 1.0625 -3.410156 1.4375 -3.578125 1.90625 -3.578125 C 2.34375 -3.578125 2.691406 -3.429688 2.953125 -3.140625 C 3.210938 -2.847656 3.34375 -2.46875 3.34375 -2 L 3.34375 -1.65625 L 0.921875 -1.65625 C 0.929688 -1.25 1.035156 -0.9375 1.234375 -0.71875 C 1.429688 -0.507812 1.707031 -0.40625 2.0625 -0.40625 C 2.445312 -0.40625 2.820312 -0.484375 3.1875 -0.640625 L 3.1875 -0.15625 C 3 -0.0820312 2.820312 -0.03125 2.65625 0 C 2.488281 0.0390625 2.285156 0.0625 2.046875 0.0625 Z M 1.90625 -3.125 C 1.625 -3.125 1.398438 -3.03125 1.234375 -2.84375 C 1.066406 -2.664062 0.96875 -2.414062 0.9375 -2.09375 L 2.765625 -2.09375 C 2.765625 -2.425781 2.6875 -2.679688 2.53125 -2.859375 C 2.382812 -3.035156 2.175781 -3.125 1.90625 -3.125 Z M 1.90625 -3.125 "/></g></g></g><g fill="#2dabe3" fill-opacity="0.4"><g transform="translate(87.27527, 112.219158)"><g><path d="M 2.171875 -3.578125 C 2.328125 -3.578125 2.460938 -3.5625 2.578125 -3.53125 L 2.515625 -3.046875 C 2.367188 -3.078125 2.238281 -3.09375 2.125 -3.09375 C 1.84375 -3.09375 1.597656 -2.976562 1.390625 -2.75 C 1.191406 -2.519531 1.09375 -2.234375 1.09375 -1.890625 L 1.09375 0 L 0.5625 0 L 0.5625 -3.515625 L 1 -3.515625 L 1.0625 -2.859375 L 1.09375 -2.859375 C 1.21875 -3.085938 1.375 -3.265625 1.5625 -3.390625 C 1.75 -3.515625 1.953125 -3.578125 2.171875 -3.578125 Z M 2.171875 -3.578125 "/></g></g></g><g fill="#2dabe3" fill-opacity="1"><g transform="translate(60.031876, 112.219158)"><g><path d="M 3.4375 0 L 2.78125 -2.0625 C 2.75 -2.1875 2.675781 -2.472656 2.5625 -2.921875 L 2.53125 -2.921875 C 2.445312 -2.546875 2.375 -2.253906 2.3125 -2.046875 L 1.640625 0 L 1.03125 0 L 0.078125 -3.515625 L 0.625 -3.515625 C 0.851562 -2.628906 1.023438 -1.953125 1.140625 -1.484375 C 1.265625 -1.023438 1.335938 -0.71875 1.359375 -0.5625 L 1.375 -0.5625 C 1.394531 -0.6875 1.429688 -0.84375 1.484375 -1.03125 C 1.535156 -1.226562 1.582031 -1.382812 1.625 -1.5 L 2.265625 -3.515625 L 2.84375 -3.515625 L 3.484375 -1.5 C 3.597656 -1.125 3.675781 -0.816406 3.71875 -0.578125 L 3.75 -0.578125 C 3.757812 -0.648438 3.78125 -0.765625 3.8125 -0.921875 C 3.851562 -1.085938 4.078125 -1.953125 4.484375 -3.515625 L 5.03125 -3.515625 L 4.0625 0 Z M 3.4375 0 "/></g></g></g><g fill="#2dabe3" fill-opacity="1"><g transform="translate(65.933993, 112.219158)"><g><path d="M 2.046875 0.0625 C 1.523438 0.0625 1.113281 -0.09375 0.8125 -0.40625 C 0.519531 -0.726562 0.375 -1.171875 0.375 -1.734375 C 0.375 -2.296875 0.507812 -2.742188 0.78125 -3.078125 C 1.0625 -3.410156 1.4375 -3.578125 1.90625 -3.578125 C 2.34375 -3.578125 2.691406 -3.429688 2.953125 -3.140625 C 3.210938 -2.847656 3.34375 -2.46875 3.34375 -2 L 3.34375 -1.65625 L 0.921875 -1.65625 C 0.929688 -1.25 1.035156 -0.9375 1.234375 -0.71875 C 1.429688 -0.507812 1.707031 -0.40625 2.0625 -0.40625 C 2.445312 -0.40625 2.820312 -0.484375 3.1875 -0.640625 L 3.1875 -0.15625 C 3 -0.0820312 2.820312 -0.03125 2.65625 0 C 2.488281 0.0390625 2.285156 0.0625 2.046875 0.0625 Z M 1.90625 -3.125 C 1.625 -3.125 1.398438 -3.03125 1.234375 -2.84375 C 1.066406 -2.664062 0.96875 -2.414062 0.9375 -2.09375 L 2.765625 -2.09375 C 2.765625 -2.425781 2.6875 -2.679688 2.53125 -2.859375 C 2.382812 -3.035156 2.175781 -3.125 1.90625 -3.125 Z M 1.90625 -3.125 "/></g></g></g><g fill="#2dabe3" fill-opacity="1"><g transform="translate(70.412572, 112.219158)"><g><path d="M 2.71875 0 L 2.625 -0.5 L 2.59375 -0.5 C 2.414062 -0.28125 2.238281 -0.128906 2.0625 -0.046875 C 1.894531 0.0234375 1.679688 0.0625 1.421875 0.0625 C 1.066406 0.0625 0.789062 -0.0234375 0.59375 -0.203125 C 0.394531 -0.378906 0.296875 -0.632812 0.296875 -0.96875 C 0.296875 -1.675781 0.863281 -2.050781 2 -2.09375 L 2.59375 -2.109375 L 2.59375 -2.328125 C 2.59375 -2.597656 2.535156 -2.796875 2.421875 -2.921875 C 2.304688 -3.054688 2.117188 -3.125 1.859375 -3.125 C 1.554688 -3.125 1.222656 -3.035156 0.859375 -2.859375 L 0.703125 -3.265625 C 0.867188 -3.359375 1.054688 -3.429688 1.265625 -3.484375 C 1.472656 -3.535156 1.679688 -3.5625 1.890625 -3.5625 C 2.304688 -3.5625 2.613281 -3.46875 2.8125 -3.28125 C 3.019531 -3.101562 3.125 -2.804688 3.125 -2.390625 L 3.125 0 Z M 1.515625 -0.375 C 1.847656 -0.375 2.109375 -0.460938 2.296875 -0.640625 C 2.484375 -0.828125 2.578125 -1.082031 2.578125 -1.40625 L 2.578125 -1.734375 L 2.046875 -1.703125 C 1.628906 -1.691406 1.328125 -1.625 1.140625 -1.5 C 0.953125 -1.382812 0.859375 -1.207031 0.859375 -0.96875 C 0.859375 -0.769531 0.914062 -0.617188 1.03125 -0.515625 C 1.144531 -0.421875 1.304688 -0.375 1.515625 -0.375 Z M 1.515625 -0.375 "/></g></g></g><g fill="#2dabe3" fill-opacity="1"><g transform="translate(74.85909, 112.219158)"><g><path d="M 1.703125 -0.375 C 1.796875 -0.375 1.882812 -0.378906 1.96875 -0.390625 C 2.0625 -0.410156 2.128906 -0.425781 2.171875 -0.4375 L 2.171875 -0.03125 C 2.117188 0 2.035156 0.0195312 1.921875 0.03125 C 1.804688 0.0507812 1.707031 0.0625 1.625 0.0625 C 0.945312 0.0625 0.609375 -0.296875 0.609375 -1.015625 L 0.609375 -3.09375 L 0.09375 -3.09375 L 0.09375 -3.359375 L 0.609375 -3.578125 L 0.828125 -4.328125 L 1.140625 -4.328125 L 1.140625 -3.515625 L 2.15625 -3.515625 L 2.15625 -3.09375 L 1.140625 -3.09375 L 1.140625 -1.03125 C 1.140625 -0.820312 1.1875 -0.660156 1.28125 -0.546875 C 1.382812 -0.429688 1.523438 -0.375 1.703125 -0.375 Z M 1.703125 -0.375 "/></g></g></g><g fill="#2dabe3" fill-opacity="1"><g transform="translate(77.971844, 112.219158)"><g><path d="M 2.96875 0 L 2.96875 -2.265625 C 2.96875 -2.554688 2.898438 -2.769531 2.765625 -2.90625 C 2.640625 -3.050781 2.4375 -3.125 2.15625 -3.125 C 1.789062 -3.125 1.519531 -3.019531 1.34375 -2.8125 C 1.175781 -2.613281 1.09375 -2.289062 1.09375 -1.84375 L 1.09375 0 L 0.5625 0 L 0.5625 -4.984375 L 1.09375 -4.984375 L 1.09375 -3.484375 C 1.09375 -3.296875 1.082031 -3.144531 1.0625 -3.03125 L 1.109375 -3.03125 C 1.210938 -3.195312 1.359375 -3.328125 1.546875 -3.421875 C 1.742188 -3.515625 1.96875 -3.5625 2.21875 -3.5625 C 2.644531 -3.5625 2.960938 -3.457031 3.171875 -3.25 C 3.390625 -3.050781 3.5 -2.734375 3.5 -2.296875 L 3.5 0 Z M 2.96875 0 "/></g></g></g><g fill="#2dabe3" fill-opacity="1"><g transform="translate(82.79669, 112.219158)"><g><path d="M 2.046875 0.0625 C 1.523438 0.0625 1.113281 -0.09375 0.8125 -0.40625 C 0.519531 -0.726562 0.375 -1.171875 0.375 -1.734375 C 0.375 -2.296875 0.507812 -2.742188 0.78125 -3.078125 C 1.0625 -3.410156 1.4375 -3.578125 1.90625 -3.578125 C 2.34375 -3.578125 2.691406 -3.429688 2.953125 -3.140625 C 3.210938 -2.847656 3.34375 -2.46875 3.34375 -2 L 3.34375 -1.65625 L 0.921875 -1.65625 C 0.929688 -1.25 1.035156 -0.9375 1.234375 -0.71875 C 1.429688 -0.507812 1.707031 -0.40625 2.0625 -0.40625 C 2.445312 -0.40625 2.820312 -0.484375 3.1875 -0.640625 L 3.1875 -0.15625 C 3 -0.0820312 2.820312 -0.03125 2.65625 0 C 2.488281 0.0390625 2.285156 0.0625 2.046875 0.0625 Z M 1.90625 -3.125 C 1.625 -3.125 1.398438 -3.03125 1.234375 -2.84375 C 1.066406 -2.664062 0.96875 -2.414062 0.9375 -2.09375 L 2.765625 -2.09375 C 2.765625 -2.425781 2.6875 -2.679688 2.53125 -2.859375 C 2.382812 -3.035156 2.175781 -3.125 1.90625 -3.125 Z M 1.90625 -3.125 "/></g></g></g><g fill="#2dabe3" fill-opacity="1"><g transform="translate(87.27527, 112.219158)"><g><path d="M 2.171875 -3.578125 C 2.328125 -3.578125 2.460938 -3.5625 2.578125 -3.53125 L 2.515625 -3.046875 C 2.367188 -3.078125 2.238281 -3.09375 2.125 -3.09375 C 1.84375 -3.09375 1.597656 -2.976562 1.390625 -2.75 C 1.191406 -2.519531 1.09375 -2.234375 1.09375 -1.890625 L 1.09375 0 L 0.5625 0 L 0.5625 -3.515625 L 1 -3.515625 L 1.0625 -2.859375 L 1.09375 -2.859375 C 1.21875 -3.085938 1.375 -3.265625 1.5625 -3.390625 C 1.75 -3.515625 1.953125 -3.578125 2.171875 -3.578125 Z M 2.171875 -3.578125 "/></g></g></g></svg>